<?xml version="1.0" encoding="UTF-8"?>
<svg width="205px" height="48px" viewBox="0 0 205 48" version="1.1" xmlns="http://www.w3.org/2000/svg" xmlns:xlink="http://www.w3.org/1999/xlink">
    <!-- Generator: Sketch 55.1 (78136) - https://sketchapp.com -->
    <title>norr-logo-new</title>
    <desc>Created with Sketch.</desc>
    <g id="Page-1" stroke="none" stroke-width="1" fill="none" fill-rule="evenodd" opacity="0.900000036">
        <g id="NORR-Homepage-1280" transform="translate(-57.000000, -32.000000)" fill="#001E45" fill-rule="nonzero">
            <g id="Header---Desktop" transform="translate(-2.000000, -1.000000)">
                <g id="Header" transform="translate(0.031250, 0.000000)">
                    <g id="norr-logo-new" transform="translate(59.506399, 33.247072)">
                        <path d="M202.526406,45.4371531 L190.501163,29.6825623 C195.372148,27.9320523 198.264295,23.2132859 198.340404,16.7440095 C198.340404,11.7208067 197.198767,7.83924083 195.14382,5.09931199 C192.936655,2.20716489 189.511744,0.608873074 185.021305,0.456654805 L185.021305,0.456654805 L185.021305,0.456654805 L156.632598,0.456654805 L155.56707,0.456654805 L155.56707,1.52218268 L155.56707,46.1221353 L155.56707,47.1876632 L156.632598,47.1876632 L167.287877,47.1876632 L168.353405,47.1876632 L168.353405,46.1221353 L168.353405,11.9491341 L179.31312,11.9491341 C182.281376,12.1774615 184.107996,12.2535706 184.260214,17.0484461 C184.336323,19.1033927 183.879668,20.5494662 182.966359,21.6149941 C181.291958,23.3655042 178.019265,23.5938316 174.670463,23.5938316 C173.985481,23.5938316 173.376608,23.5938316 172.691626,23.5938316 C172.31108,23.5938316 172.006643,23.5938316 171.626098,23.5938316 L169.495042,23.5938316 L170.712788,25.2682326 L186.467379,46.7310084 L186.771815,47.1876632 L187.304579,47.1876632 L201.689206,47.1876632 L203.820261,47.1876632 L202.526406,45.4371531 Z" id="Shape"></path>
                        <polygon id="Shape" points="35.4668565 0.152218268 34.4013287 0.152218268 34.4013287 1.14163701 34.4013287 24.963796 13.3952076 0.53276394 13.0907711 0.228327403 12.5580071 0.228327403 1.21774615 0.228327403 0.152218268 0.228327403 0.152218268 1.21774615 0.152218268 46.0460262 0.152218268 47.1115541 1.21774615 47.1115541 11.7208067 47.1115541 12.7863345 47.1115541 12.7863345 46.0460262 12.7863345 21.1583393 34.6296561 46.7310084 34.9340926 47.1115541 35.4668565 47.1115541 46.1221353 47.1115541 47.1876632 47.1115541 47.1876632 46.0460262 47.2637724 1.21774615 47.2637724 0.152218268 46.1982445 0.152218268"></polygon>
                        <path d="M139.660261,29.6825623 C144.531246,27.9320523 147.423393,23.2132859 147.499502,16.7440095 C147.499502,11.7208067 146.357865,7.83924083 144.302918,5.09931199 C142.095754,2.20716489 138.670843,0.608873074 134.180404,0.456654805 L134.180404,0.456654805 L134.180404,0.456654805 L105.791697,0.456654805 L104.726169,0.456654805 L104.726169,1.52218268 L104.726169,46.1221353 L104.726169,47.1876632 L105.791697,47.1876632 L116.446975,47.1876632 L117.512503,47.1876632 L117.512503,46.1221353 L117.512503,11.9491341 L128.472219,11.9491341 C131.440475,12.1774615 133.267094,12.2535706 133.419312,17.0484461 C133.495421,19.1033927 133.038767,20.5494662 132.125457,21.6149941 C130.451056,23.3655042 127.178363,23.5938316 123.829561,23.5938316 C123.144579,23.5938316 122.535706,23.5938316 121.850724,23.5938316 C121.470178,23.5938316 121.165742,23.5938316 120.785196,23.5938316 L118.65414,23.5938316 L119.871886,25.2682326 L135.626477,46.7310084 L135.930914,47.1876632 L136.463678,47.1876632 L150.772195,47.1876632 L152.903251,47.1876632 L151.609395,45.5132623 L139.660261,29.6825623 Z" id="Shape"></path>
                        <path d="M93.8425625,6.84982208 C89.1237962,2.4354923 82.7306289,0 75.956916,0 C69.183203,0 62.7900357,2.4354923 58.0712694,6.84982208 C53.276394,11.340261 50.6125743,17.4289917 50.6125743,23.8982681 C50.6125743,30.3675446 53.276394,36.3801662 58.0712694,40.7183868 C62.7900357,44.9804983 69.1070939,47.3398815 75.956916,47.3398815 C82.806738,47.3398815 89.1237962,44.9804983 93.8425625,40.7183868 C98.637438,36.3801662 101.301258,30.3675446 101.301258,23.8982681 C101.301258,17.4289917 98.637438,11.340261 93.8425625,6.84982208 M75.8808068,35.9235114 C69.2593121,35.9235114 63.8555636,30.4436537 63.8555636,23.6699407 C63.8555636,16.8962278 69.2593121,11.4163701 75.8808068,11.4163701 C82.5023015,11.4163701 87.90605,16.8962278 87.90605,23.6699407 C87.9821592,30.4436537 82.5784106,35.9235114 75.8808068,35.9235114" id="Shape"></path>
                    </g>
                </g>
            </g>
        </g>
    </g>
</svg>